<svg version="1.1" id="Layer_1" xmlns="http://www.w3.org/2000/svg" xmlns:xlink="http://www.w3.org/1999/xlink" x="0px" y="0px"
	 width="100%" viewBox="0 0 800 555" enable-background="new 0 0 800 555" xml:space="preserve">
<path fill="#000000" opacity="1.000000" stroke="none" 
	d="
M801.000000,197.000000 
	C801.000000,316.999969 801.000000,436.499969 801.000000,556.000000 
	C534.333374,556.000000 267.666748,556.000000 1.000104,556.000000 
	C1.000069,371.000061 1.000069,186.000137 1.000035,1.000153 
	C267.666565,1.000102 534.333130,1.000102 800.999878,1.000051 
	C801.000000,66.166664 801.000000,131.333328 801.000000,197.000000 
M622.999207,53.494656 
	C617.271851,50.989151 611.665039,48.148277 605.795044,46.039864 
	C586.802856,39.218163 567.954773,31.839670 548.607056,26.198978 
	C518.104492,17.306171 486.728882,12.388229 455.151215,9.093139 
	C443.208099,7.846889 431.160187,7.494209 419.148315,7.055361 
	C410.826874,6.751342 402.482971,6.871148 394.153381,7.027877 
	C383.066162,7.236493 371.942474,7.185729 360.908569,8.121089 
	C347.283142,9.276138 333.685120,11.011278 320.165039,13.081942 
	C305.951569,15.258797 291.776855,17.808273 277.705627,20.767498 
	C254.585495,25.629732 232.046585,32.568405 209.981110,41.021782 
	C187.903915,49.479637 166.499985,59.443665 146.183914,71.493149 
	C126.378937,83.239517 107.620567,96.504303 90.371918,111.932007 
	C73.650558,126.888084 58.667088,143.231476 45.747040,161.573517 
	C34.173302,178.004272 25.014957,195.714310 18.349445,214.539902 
	C12.123945,232.122742 7.873988,250.305466 7.990342,269.203583 
	C8.031402,275.872375 7.448809,282.597260 8.118392,289.198364 
	C9.280442,300.654480 10.652330,312.143127 12.914463,323.421936 
	C16.925245,343.419373 25.037699,361.933533 35.174702,379.565308 
	C45.344543,397.254211 57.737633,413.308716 71.714554,428.115753 
	C77.039246,433.756683 82.775459,439.055145 88.680695,444.091614 
	C98.232063,452.237854 107.664108,460.622864 117.885254,467.864380 
	C139.577560,483.233002 162.401718,496.857605 187.085098,506.898499 
	C205.021317,514.194702 223.241562,520.853088 241.565598,527.122375 
	C274.116791,538.259399 307.900024,543.885559 341.937744,547.886780 
	C356.278442,549.572632 370.763885,550.761841 385.188782,550.817749 
	C404.855438,550.893982 424.554962,550.108582 444.187683,548.862244 
	C459.144989,547.912659 474.060852,545.965149 488.919342,543.912476 
	C500.926727,542.253662 512.938965,540.285400 524.740601,537.553833 
	C548.822083,531.980103 572.779663,525.674133 595.521301,515.867004 
	C615.253784,507.357574 634.973328,498.586029 653.819702,488.317322 
	C673.546082,477.569061 692.433044,465.121857 708.840393,449.533508 
	C721.694824,437.320831 734.812378,425.224884 746.325439,411.801178 
	C760.507568,395.265442 771.717041,376.600220 780.340698,356.397675 
	C788.715576,336.777954 794.338440,316.396759 795.683960,295.284119 
	C796.654297,280.058594 795.191895,264.599854 793.871277,249.326706 
	C792.305298,231.214630 786.127319,214.155685 778.817444,197.703476 
	C768.157166,173.710480 753.502441,152.042160 735.343384,133.183777 
	C722.362183,119.702744 708.342896,107.007507 693.587280,95.499664 
	C672.113281,78.752228 648.588013,65.037712 622.999207,53.494656 
z"/>
<path fill="#FDFDFE" opacity="1.000000" stroke="none" 
	d="
M623.309570,53.728073 
	C648.588013,65.037712 672.113281,78.752228 693.587280,95.499664 
	C708.342896,107.007507 722.362183,119.702744 735.343384,133.183777 
	C753.502441,152.042160 768.157166,173.710480 778.817444,197.703476 
	C786.127319,214.155685 792.305298,231.214630 793.871277,249.326706 
	C795.191895,264.599854 796.654297,280.058594 795.683960,295.284119 
	C794.338440,316.396759 788.715576,336.777954 780.340698,356.397675 
	C771.717041,376.600220 760.507568,395.265442 746.325439,411.801178 
	C734.812378,425.224884 721.694824,437.320831 708.840393,449.533508 
	C692.433044,465.121857 673.546082,477.569061 653.819702,488.317322 
	C634.973328,498.586029 615.253784,507.357574 595.521301,515.867004 
	C572.779663,525.674133 548.822083,531.980103 524.740601,537.553833 
	C512.938965,540.285400 500.926727,542.253662 488.919342,543.912476 
	C474.060852,545.965149 459.144989,547.912659 444.187683,548.862244 
	C424.554962,550.108582 404.855438,550.893982 385.188782,550.817749 
	C370.763885,550.761841 356.278442,549.572632 341.937744,547.886780 
	C307.900024,543.885559 274.116791,538.259399 241.565598,527.122375 
	C223.241562,520.853088 205.021317,514.194702 187.085098,506.898499 
	C162.401718,496.857605 139.577560,483.233002 117.885254,467.864380 
	C107.664108,460.622864 98.232063,452.237854 88.680695,444.091614 
	C82.775459,439.055145 77.039246,433.756683 71.714554,428.115753 
	C57.737633,413.308716 45.344543,397.254211 35.174702,379.565308 
	C25.037699,361.933533 16.925245,343.419373 12.914463,323.421936 
	C10.652330,312.143127 9.280442,300.654480 8.118392,289.198364 
	C7.448809,282.597260 8.031402,275.872375 7.990342,269.203583 
	C7.873988,250.305466 12.123945,232.122742 18.349445,214.539902 
	C25.014957,195.714310 34.173302,178.004272 45.747040,161.573517 
	C58.667088,143.231476 73.650558,126.888084 90.371918,111.932007 
	C107.620567,96.504303 126.378937,83.239517 146.183914,71.493149 
	C166.499985,59.443665 187.903915,49.479637 209.981110,41.021782 
	C232.046585,32.568405 254.585495,25.629732 277.705627,20.767498 
	C291.776855,17.808273 305.951569,15.258797 320.165039,13.081942 
	C333.685120,11.011278 347.283142,9.276138 360.908569,8.121089 
	C371.942474,7.185729 383.066162,7.236493 394.153381,7.027877 
	C402.482971,6.871148 410.826874,6.751342 419.148315,7.055361 
	C431.160187,7.494209 443.208099,7.846889 455.151215,9.093139 
	C486.728882,12.388229 518.104492,17.306171 548.607056,26.198978 
	C567.954773,31.839670 586.802856,39.218163 605.795044,46.039864 
	C611.665039,48.148277 617.271851,50.989151 623.309570,53.728073 
M86.723145,425.062042 
	C87.080498,425.178986 87.437851,425.295929 87.795204,425.412903 
	C87.575516,424.899841 87.355820,424.386749 87.025398,423.184906 
	C86.498970,422.339905 85.960152,421.502380 85.447884,420.648865 
	C55.520863,370.787476 45.340496,317.356842 58.316032,260.456482 
	C68.423950,216.131241 94.093636,181.454102 129.407181,153.679871 
	C171.088776,120.897148 218.793259,100.978210 270.085236,88.989693 
	C272.670868,88.385353 275.354095,88.198608 277.991913,87.817429 
	C267.298981,95.682640 256.220154,102.332352 245.250793,109.157944 
	C212.970840,129.243927 183.155685,152.287125 158.831467,181.832108 
	C118.776268,230.484467 102.514313,286.103699 111.259956,348.530914 
	C118.529007,400.418091 144.483536,441.806030 185.599472,473.569489 
	C234.482376,511.333130 290.225342,531.316711 351.741821,536.034180 
	C398.300995,539.604614 444.611572,538.552673 490.742065,531.063660 
	C543.505249,522.497864 593.881775,506.725769 640.910156,481.042938 
	C683.408447,457.833954 720.893616,428.529266 748.201965,387.980530 
	C789.222717,327.070648 795.955322,262.788422 763.665100,196.026138 
	C743.813904,154.982468 712.453125,123.685211 675.341003,97.985634 
	C616.555969,57.277870 550.657959,35.189793 480.442719,25.126728 
	C426.512909,17.397655 372.520905,17.696760 318.597534,25.888845 
	C263.721466,34.225670 211.385696,50.286026 162.546570,76.968948 
	C123.991066,98.033470 89.824203,124.491585 62.923412,159.602783 
	C36.931618,193.527557 21.021088,231.448898 20.278027,274.577545 
	C19.244507,334.564941 44.971455,383.127350 86.723145,425.062042 
z"/>
<path fill="#011F45" opacity="1.000000" stroke="none" 
	d="
M86.380997,424.601196 
	C44.971455,383.127350 19.244507,334.564941 20.278027,274.577545 
	C21.021088,231.448898 36.931618,193.527557 62.923412,159.602783 
	C89.824203,124.491585 123.991066,98.033470 162.546570,76.968948 
	C211.385696,50.286026 263.721466,34.225670 318.597534,25.888845 
	C372.520905,17.696760 426.512909,17.397655 480.442719,25.126728 
	C550.657959,35.189793 616.555969,57.277870 675.341003,97.985634 
	C712.453125,123.685211 743.813904,154.982468 763.665100,196.026138 
	C795.955322,262.788422 789.222717,327.070648 748.201965,387.980530 
	C720.893616,428.529266 683.408447,457.833954 640.910156,481.042938 
	C593.881775,506.725769 543.505249,522.497864 490.742065,531.063660 
	C444.611572,538.552673 398.300995,539.604614 351.741821,536.034180 
	C290.225342,531.316711 234.482376,511.333130 185.599472,473.569489 
	C144.483536,441.806030 118.529007,400.418091 111.259956,348.530914 
	C102.514313,286.103699 118.776268,230.484467 158.831467,181.832108 
	C183.155685,152.287125 212.970840,129.243927 245.250793,109.157944 
	C256.220154,102.332352 267.298981,95.682640 277.991913,87.817429 
	C275.354095,88.198608 272.670868,88.385353 270.085236,88.989693 
	C218.793259,100.978210 171.088776,120.897148 129.407181,153.679871 
	C94.093636,181.454102 68.423950,216.131241 58.316032,260.456482 
	C45.340496,317.356842 55.520863,370.787476 85.447884,420.648865 
	C85.960152,421.502380 86.498970,422.339905 86.888992,423.708069 
	C86.628716,424.354523 86.504860,424.477875 86.380997,424.601196 
M688.754150,231.753754 
	C670.889221,220.180679 653.240723,208.255020 635.103882,197.125031 
	C613.105713,183.625427 592.018799,169.331238 577.881836,146.901505 
	C575.791626,143.585144 572.739502,140.741165 569.699219,138.196075 
	C566.804504,135.772888 563.575134,133.433197 560.095703,132.072540 
	C512.187012,113.337326 463.295837,97.862175 412.713409,88.026421 
	C410.404297,87.577415 407.763397,86.018250 406.375885,84.156990 
	C401.607147,77.759979 397.629211,70.767151 392.779449,64.438522 
	C387.536041,57.596119 382.531921,50.124676 375.876556,44.896835 
	C358.679321,31.388218 349.373688,33.320587 336.159393,48.461998 
	C333.878143,51.075924 331.781860,53.988998 330.238922,57.082497 
	C326.313324,64.952934 322.215515,72.803627 319.136230,81.018188 
	C307.665955,111.617126 299.778076,143.203217 294.297485,175.393875 
	C292.866638,183.798294 291.809357,192.266312 290.418701,201.816452 
	C293.161713,200.016602 294.735107,198.828812 296.444153,197.887314 
	C310.400970,190.198746 323.971741,181.651947 338.436005,175.072144 
	C378.877563,156.675293 421.742310,147.628525 465.951050,145.276291 
	C488.198212,144.092575 510.536530,143.754547 532.809692,144.208267 
	C549.913330,144.556686 565.098572,150.234283 575.035217,165.696335 
	C582.654419,177.552155 592.930115,186.615051 605.367981,193.286819 
	C609.170105,195.326294 612.698242,197.872681 616.379333,200.142242 
	C643.302246,216.741470 670.520752,232.986237 693.966919,254.456833 
	C700.599854,260.530884 706.271484,267.942139 711.136414,275.539062 
	C713.598083,279.383118 714.995422,285.466064 713.859314,289.734283 
	C711.452332,298.777374 707.623230,307.579468 703.326477,315.940308 
	C699.608154,323.175720 693.140564,328.165100 685.538452,331.364532 
	C684.334839,331.871124 682.959961,331.970978 680.981079,332.410706 
	C687.432678,308.499878 680.253052,289.516846 664.552612,272.496124 
	C638.493042,244.245300 605.211670,228.654678 569.571899,217.101135 
	C560.663818,214.213364 551.337708,212.615356 541.905640,210.353058 
	C546.102356,202.162643 545.914368,194.435501 542.012451,186.908798 
	C539.039673,181.174347 536.544983,180.450928 530.710571,183.080750 
	C510.113190,192.364899 489.526245,201.672287 468.945709,210.993851 
	C468.049438,211.399811 467.255859,212.032623 466.195862,212.696716 
	C515.590027,214.149490 560.165222,228.516052 599.882202,257.284363 
	C613.915894,267.449402 626.134827,279.384247 633.573303,295.432037 
	C646.964722,324.322632 636.694397,355.017548 608.834656,370.278687 
	C576.124451,388.196899 542.223755,403.480347 507.216980,416.264374 
	C493.042084,421.440887 478.757233,426.640686 464.117126,430.128387 
	C449.276520,433.663849 433.982239,435.471436 418.803711,437.374207 
	C389.084686,441.099823 359.310425,441.910706 329.769257,435.879425 
	C297.160522,429.221893 268.817261,415.101379 248.452927,387.652466 
	C247.910538,386.921387 247.078506,386.405151 245.951492,385.408417 
	C245.951492,390.323547 245.549011,394.660828 246.014572,398.902893 
	C250.092606,436.061218 273.272430,459.836945 307.976532,464.024200 
	C333.532349,467.107635 358.974670,464.073822 383.876007,458.371338 
	C413.674377,451.547394 443.161743,443.368164 472.809814,435.878967 
	C474.977783,435.331360 477.415100,435.236359 479.628754,435.574860 
	C516.476624,441.209656 553.255127,447.328369 590.164612,452.517456 
	C611.832886,455.563751 630.501648,449.559937 641.389038,428.974731 
	C649.686096,413.287140 656.854370,397.001221 664.455994,380.948883 
	C665.321350,379.121429 665.741516,377.083160 666.583679,374.475067 
	C664.802002,375.067047 664.022095,375.307556 663.255066,375.583710 
	C626.840088,388.694061 590.408875,401.760040 554.037964,414.991394 
	C550.264648,416.364105 547.680664,415.900146 545.451660,412.086670 
	C546.783142,411.445251 548.070862,410.792236 549.384644,410.196808 
	C581.145325,395.802826 613.177612,381.971832 644.568604,366.812561 
	C662.776855,358.019531 680.079163,347.305115 697.557983,337.060822 
	C712.117493,328.527618 719.994202,314.671509 725.295105,299.275970 
	C730.382629,284.499847 728.889038,270.514740 717.543579,258.956940 
	C708.465210,249.708633 698.756592,241.079010 688.754150,231.753754 
z"/>
<path fill="#011F45" opacity="1.000000" stroke="none" 
	d="
M86.944351,424.052429 
	C87.355820,424.386749 87.575516,424.899841 87.795212,425.412903 
	C87.437851,425.295929 87.080498,425.178986 86.552071,424.831604 
	C86.504860,424.477875 86.628716,424.354523 86.944351,424.052429 
z"/>
<path fill="#FCFDFD" opacity="1.000000" stroke="none" 
	d="
M689.040894,231.964279 
	C698.756592,241.079010 708.465210,249.708633 717.543579,258.956940 
	C728.889038,270.514740 730.382629,284.499847 725.295105,299.275970 
	C719.994202,314.671509 712.117493,328.527618 697.557983,337.060822 
	C680.079163,347.305115 662.776855,358.019531 644.568604,366.812561 
	C613.177612,381.971832 581.145325,395.802826 549.384644,410.196808 
	C548.070862,410.792236 546.783142,411.445251 545.451660,412.086670 
	C547.680664,415.900146 550.264648,416.364105 554.037964,414.991394 
	C590.408875,401.760040 626.840088,388.694061 663.255066,375.583710 
	C664.022095,375.307556 664.802002,375.067047 666.583679,374.475067 
	C665.741516,377.083160 665.321350,379.121429 664.455994,380.948883 
	C656.854370,397.001221 649.686096,413.287140 641.389038,428.974731 
	C630.501648,449.559937 611.832886,455.563751 590.164612,452.517456 
	C553.255127,447.328369 516.476624,441.209656 479.628754,435.574860 
	C477.415100,435.236359 474.977783,435.331360 472.809814,435.878967 
	C443.161743,443.368164 413.674377,451.547394 383.876007,458.371338 
	C358.974670,464.073822 333.532349,467.107635 307.976532,464.024200 
	C273.272430,459.836945 250.092606,436.061218 246.014572,398.902893 
	C245.549011,394.660828 245.951492,390.323547 245.951492,385.408417 
	C247.078506,386.405151 247.910538,386.921387 248.452927,387.652466 
	C268.817261,415.101379 297.160522,429.221893 329.769257,435.879425 
	C359.310425,441.910706 389.084686,441.099823 418.803711,437.374207 
	C433.982239,435.471436 449.276520,433.663849 464.117126,430.128387 
	C478.757233,426.640686 493.042084,421.440887 507.216980,416.264374 
	C542.223755,403.480347 576.124451,388.196899 608.834656,370.278687 
	C636.694397,355.017548 646.964722,324.322632 633.573303,295.432037 
	C626.134827,279.384247 613.915894,267.449402 599.882202,257.284363 
	C560.165222,228.516052 515.590027,214.149490 466.195862,212.696716 
	C467.255859,212.032623 468.049438,211.399811 468.945709,210.993851 
	C489.526245,201.672287 510.113190,192.364899 530.710571,183.080750 
	C536.544983,180.450928 539.039673,181.174347 542.012451,186.908798 
	C545.914368,194.435501 546.102356,202.162643 541.905640,210.353058 
	C551.337708,212.615356 560.663818,214.213364 569.571899,217.101135 
	C605.211670,228.654678 638.493042,244.245300 664.552612,272.496124 
	C680.253052,289.516846 687.432678,308.499878 680.981079,332.410706 
	C682.959961,331.970978 684.334839,331.871124 685.538452,331.364532 
	C693.140564,328.165100 699.608154,323.175720 703.326477,315.940308 
	C707.623230,307.579468 711.452332,298.777374 713.859314,289.734283 
	C714.995422,285.466064 713.598083,279.383118 711.136414,275.539062 
	C706.271484,267.942139 700.599854,260.530884 693.966919,254.456833 
	C670.520752,232.986237 643.302246,216.741470 616.379333,200.142242 
	C612.698242,197.872681 609.170105,195.326294 605.367981,193.286819 
	C592.930115,186.615051 582.654419,177.552155 575.035217,165.696335 
	C565.098572,150.234283 549.913330,144.556686 532.809692,144.208267 
	C510.536530,143.754547 488.198212,144.092575 465.951050,145.276291 
	C421.742310,147.628525 378.877563,156.675293 338.436005,175.072144 
	C323.971741,181.651947 310.400970,190.198746 296.444153,197.887314 
	C294.735107,198.828812 293.161713,200.016602 290.418701,201.816452 
	C291.809357,192.266312 292.866638,183.798294 294.297485,175.393875 
	C299.778076,143.203217 307.665955,111.617126 319.136230,81.018188 
	C322.215515,72.803627 326.313324,64.952934 330.238922,57.082497 
	C331.781860,53.988998 333.878143,51.075924 336.159393,48.461998 
	C349.373688,33.320587 358.679321,31.388218 375.876556,44.896835 
	C382.531921,50.124676 387.536041,57.596119 392.779449,64.438522 
	C397.629211,70.767151 401.607147,77.759979 406.375885,84.156990 
	C407.763397,86.018250 410.404297,87.577415 412.713409,88.026421 
	C463.295837,97.862175 512.187012,113.337326 560.095703,132.072540 
	C563.575134,133.433197 566.804504,135.772888 569.699219,138.196075 
	C572.739502,140.741165 575.791626,143.585144 577.881836,146.901505 
	C592.018799,169.331238 613.105713,183.625427 635.103882,197.125031 
	C653.240723,208.255020 670.889221,220.180679 689.040894,231.964279 
M317.804626,137.256744 
	C315.954834,146.961777 314.105072,156.666809 312.255280,166.371841 
	C319.177948,157.875793 324.819794,148.911804 331.175171,140.486069 
	C346.855347,119.697990 364.569122,101.089058 388.787231,90.017784 
	C392.135803,88.487000 391.247620,86.553902 389.786682,84.521591 
	C384.252747,76.823471 378.781860,69.070923 372.959320,61.594234 
	C370.856415,58.893898 368.074951,56.529835 365.177795,54.677658 
	C357.643372,49.860802 352.815491,50.779331 347.847198,58.181820 
	C344.248627,63.543518 340.849579,69.137169 338.162750,74.994873 
	C329.126648,94.694916 322.503906,115.232117 317.804626,137.256744 
z"/>
<path fill="#032046" opacity="1.000000" stroke="none" 
	d="
M317.879272,136.843292 
	C322.503906,115.232117 329.126648,94.694916 338.162750,74.994873 
	C340.849579,69.137169 344.248627,63.543518 347.847198,58.181820 
	C352.815491,50.779331 357.643372,49.860802 365.177795,54.677658 
	C368.074951,56.529835 370.856415,58.893898 372.959320,61.594234 
	C378.781860,69.070923 384.252747,76.823471 389.786682,84.521591 
	C391.247620,86.553902 392.135803,88.487000 388.787231,90.017784 
	C364.569122,101.089058 346.855347,119.697990 331.175171,140.486069 
	C324.819794,148.911804 319.177948,157.875793 312.255280,166.371841 
	C314.105072,156.666809 315.954834,146.961777 317.879272,136.843292 
z"/>
</svg>