<?xml version="1.0" encoding="UTF-8" standalone="no"?>
<svg xmlns:rdf="http://www.w3.org/1999/02/22-rdf-syntax-ns#" xmlns="http://www.w3.org/2000/svg" xml:space="preserve" height="29.852" viewBox="0 0 160.35448 29.852489" width="160.35" version="1.1" xmlns:cc="http://creativecommons.org/ns#" xmlns:dc="http://purl.org/dc/elements/1.1/"><g transform="matrix(1.25 0 0 -1.25 -400.7 -353.98)"><path d="m390.61-284.02c-1.5918-0.14453-2.8725-1.6348-3.1469-2.7266l-1.9172-8.05c-0.23047-1.0557 1.1771-2.0531 2.0844-2.0531h4.9906l2.2406 9.3734h1.0125l-1.0125-4.6h7.6984l1.3641 5.9953c0.16016 0.78906-1.0154 2.058-1.7703 2.0609h-11.544zm-63.938-0.25313-5.3531-22.028h7.6812l4.4484 18.68 0.92657 0.003-2.6625-11.77c1.3462-0.008 6.7986-0.633 8.2234 2.0828-0.33252-1.3311-0.72969-2.7035-1.0266-4.2016-0.2168-1.0957-0.60791-2.401-0.28906-3.4703 0.28858-0.66699 1.0562-1.2883 1.75-1.3234h10.458c1.251 0.007 1.8251 2.7451 2.1703 4.1562l-7.6344-0.009 2.3766 10.056c0.50586 0.007 0.7959 0 1.1641 0-0.66504-2.8359-1.3446-5.49-2.1547-9.0047h6.4516l1.7938 7.4344c0.30371 1.2334 0.39317 1.6314 0.65 2.9156 0.19532 0.79589-0.12363 1.8734-1.9703 1.8734h-7.7891c-3.4219 0-4.1263-0.77128-4.2703-1.1062l0.90938 3.7391c0.2788 1.0996-0.72178 1.9703-1.9703 1.9703l-13.883 0.003zm78.114-2.6328-4.5719-19.395h6.3375l3.4266 14.225h8.7078l-2.5375-10.908h-0.98437l2.3 9.8656h-5.5328c-0.44141 0-1.1742-0.6836-1.3891-1.2422-0.63769-2.6113-1.1254-4.5033-1.85-7.6391-0.21973-0.94629-0.37285-2.3502-0.14531-2.9781 0.34668-0.66699 1.0516-1.3234 1.6844-1.3234h11.817s3.3789 14.243 3.4219 14.427c0.042 0.18457 0.11698 0.57071-0.0656 1.2797-0.24806 0.9668-1.4775 1.7156-2.4219 1.7156h-12.186l0.41876 1.9734h-6.4297zm22.789 0-4.6063-19.395h6.2813l3.3984 14.225h0.86719l-2.4391-10.655c-0.19922-1.0713-0.16773-1.4953 0.0344-2.1047 0.31933-0.80957 1.3504-1.4656 1.9891-1.4656h10.164c1.3955-0.008 1.7209 2.3928 2.1047 4.2141h-7.3594l2.3312 10.011h0.89687l-2.0609-9.0266h6.4078 0.002l2.375 9.8719c0.27929 1.2188-0.89747 2.3555-2.25 2.3516h-8.4484c-0.63281 0-1.7973-0.29668-2.5453-0.80156l0.225 0.80156h-1.5266l0.45937 1.9734h-6.3zm-70.541-1.9734-4.15-17.422h6.5797l3.1609 13.472 0.10937 0.73125h1.0406l-3.2547-14.203h6.3797s2.8183 12.088 3.5219 15.166c0.17334 0.88379-1.2206 2.2562-2.0609 2.2562h-11.327zm14.972 0-4.15-17.422h6.5797l3.1609 13.472 0.10781 0.73125h1.0422l-3.2547-14.203h6.3797s2.8188 12.088 3.5219 15.166c0.17383 0.88379-1.2201 2.2562-2.0609 2.2562h-11.327zm22.566-4.2391-2.2594-9.8656h-1.1047l1.1688 5.1469h-7.55s-0.8496-3.584-1.5078-6.2891c-0.25976-1.0498 1.0916-2.1682 1.8797-2.175h11.689c1.5137-0.0293 2.3699 0.81367 2.6688 1.6828 0.0791 0.23145 1.4535 5.6924 2.3578 9.8359 0.15332 0.6748-0.60781 1.6641-1.9906 1.6641h-5.3516z" fill="#091f40"/></g></svg>
